<?xml version="1.0" encoding="UTF-8"?>
<svg version="1.1" xmlns="http://www.w3.org/2000/svg" width="512" height="512">
<path d="M0 0 C0.76933868 -0.00794586 1.53867737 -0.01589172 2.33132935 -0.02407837 C24.47469224 -0.19995776 48.94525312 2.98583118 66 18.5625 C75.79924676 29.20236842 79.01984784 41.24649559 79.1875 55.375 C78.58196111 66.23433084 74.43493067 76.84859731 66.9296875 84.859375 C63.35086379 87.97279114 59.39068508 90.21026948 55.1875 92.375 C53.91326172 93.04015625 53.91326172 93.04015625 52.61328125 93.71875 C42.07226541 98.65092289 30.45440875 99.96665031 19.08056641 101.90429688 C-17.6227439 108.2268288 -55.6695626 120.8432884 -78.19140625 152.66015625 C-93.92821076 175.81842589 -100.98330682 202.52367781 -96.20605469 230.31738281 C-92.89319593 247.63796199 -85.49272364 263.13068593 -73.8125 276.375 C-73.37035156 276.95894531 -72.92820313 277.54289062 -72.47265625 278.14453125 C-59.46274988 295.02972887 -37.14913312 305.29532114 -16.51171875 308.05859375 C26.6638538 311.75154135 59.31086031 291.82686272 94.3359375 269.03125 C119.04442623 253.00949464 146.50424155 241.70153476 176.609375 247.0234375 C189.67310656 250.24802947 201.2246721 256.35107734 211.1875 265.375 C211.89519531 266.01308594 212.60289062 266.65117187 213.33203125 267.30859375 C228.0221612 281.26843044 237.76158 301.83144999 238.390625 322.17578125 C238.76191611 347.84624117 232.72313973 370.89547728 220.1875 393.375 C219.85024902 393.99004395 219.51299805 394.60508789 219.16552734 395.23876953 C211.14659889 409.72764501 201.01056735 422.76868972 189.625 434.76171875 C187.8685406 436.64484589 186.22062887 438.51991621 184.59375 440.5078125 C182.10117599 443.4778601 179.52059883 445.85721485 176.57421875 448.3515625 C174.86666449 449.79921079 173.1843338 451.27682145 171.51953125 452.7734375 C137.57203576 482.98291958 92.71404027 501.9615843 48.1875 509.375 C47.2912793 509.53581055 46.39505859 509.69662109 45.47167969 509.86230469 C4.65103184 517.02770976 -38.76335757 512.79687554 -77.8125 499.375 C-79.04355469 498.95863281 -80.27460938 498.54226563 -81.54296875 498.11328125 C-126.6176332 482.34120321 -170.21419359 451.77796441 -198.5546875 413.07714844 C-199.84289472 411.33386801 -201.16706407 409.62332302 -202.5 407.9140625 C-229.90648373 372.32319014 -246.27731876 326.83217704 -250.8125 282.375 C-250.95171875 281.01689209 -250.95171875 281.01689209 -251.09375 279.63134766 C-253.89854024 249.51491245 -251.13074592 219.66497651 -243.8125 190.375 C-243.63525391 189.64619629 -243.45800781 188.91739258 -243.27539062 188.16650391 C-235.00559505 154.85760505 -217.94526829 123.23998392 -196.8125 96.375 C-196.13058594 95.49972656 -195.44867188 94.62445313 -194.74609375 93.72265625 C-154.09107147 42.73541836 -93.00189917 9.65833917 -28.48461914 1.19995117 C-19.00898262 0.16442703 -9.52204882 0.05133857 0 0 Z " fill="#FF811E" transform="translate(262.8125,-0.375)"/>
<path d="M0 0 C13.76800691 9.02041832 24.23729848 21.89445745 28.0625 38.125 C30.85976657 55.12377375 27.42301258 70.63990815 18.00390625 84.96875 C8.60358185 97.63280449 -4.97444365 105.71763163 -20.546875 108.03125 C-36.81828485 109.72422906 -52.11786424 105.86016966 -65.328125 96.01953125 C-76.37180771 86.52980936 -84.97759186 72.86516164 -86.47290039 58.11352539 C-87.33735488 40.93459297 -84.14874157 25.72621137 -72.703125 12.33203125 C-54.09628839 -7.65123802 -24.23156223 -13.46614681 0 0 Z " fill="#FF9516" transform="translate(290.25,160.6875)"/>
</svg>
