<?xml version="1.0" encoding="UTF-8" standalone="no"?>
<svg
   width="32"
   height="32"
   viewBox="0 0 24 24"
   version="1.1"
   id="svg1"
   sodipodi:docname="MaterialSymbolsToolsPowerDrill.svg"
   inkscape:version="1.3.2 (091e20e, 2023-11-25, custom)"
   xmlns:inkscape="http://www.inkscape.org/namespaces/inkscape"
   xmlns:sodipodi="http://sodipodi.sourceforge.net/DTD/sodipodi-0.dtd"
   xmlns="http://www.w3.org/2000/svg"
   xmlns:svg="http://www.w3.org/2000/svg">
  <defs
     id="defs1" />
  <sodipodi:namedview
     id="namedview1"
     pagecolor="#505050"
     bordercolor="#eeeeee"
     borderopacity="1"
     inkscape:showpageshadow="0"
     inkscape:pageopacity="0"
     inkscape:pagecheckerboard="0"
     inkscape:deskcolor="#505050"
     inkscape:zoom="25.53125"
     inkscape:cx="16"
     inkscape:cy="16"
     inkscape:window-width="1920"
     inkscape:window-height="1009"
     inkscape:window-x="-8"
     inkscape:window-y="-8"
     inkscape:window-maximized="1"
     inkscape:current-layer="svg1" />
  <!-- Icon from Material Symbols by Google - https://github.com/google/material-design-icons/blob/master/LICENSE -->
  <path
     fill="currentColor"
     d="m 14.500003,6.2499994 v 4.4999996 q 0,0.3 0.225,0.525 0.225,0.225 0.525,0.225 0.3,0 0.525,-0.225 0.225,-0.225 0.225,-0.525 V 6.2499994 q 0,-0.3 -0.225,-0.525 -0.225,-0.225 -0.525,-0.225 -0.3,0 -0.525,0.225 -0.225,0.225 -0.225,0.525 m 2.5,0 v 4.4999996 q 0,0.3 0.225,0.525 0.225,0.225 0.525,0.225 0.3,0 0.525,-0.225 0.225,-0.225 0.225,-0.525 V 6.2499994 q 0,-0.3 -0.225,-0.525 -0.225,-0.225 -0.525,-0.225 -0.3,0 -0.525,0.225 -0.225,0.225 -0.225,0.525 m -3.5,10.2499996 h 6 v 1 q 0,0.825 -0.588,1.413 -0.588,0.588 -1.412,0.587 v 2 q 0,0.425 -0.288,0.713 -0.288,0.288 -0.712,0.287 -0.424,-10e-4 -0.713,-0.288 -0.289,-0.287 -0.287,-0.712 v -2 q -0.825,0 -1.413,-0.587 -0.588,-0.587 -0.587,-1.413 z m -4.5000001,-5 V 5.4999994 h 2.5000001 q 0,-1.65 1.175,-2.825 1.175,-1.175 2.825,-1.175 h 2 q 1.65,0 2.825,1.175 1.175,1.175 1.175,2.825 v 7.9999996 q 0,0.825 -0.588,1.413 -0.588,0.588 -1.412,0.587 h -6 q -0.825,0 -1.413,-0.587 -0.588,-0.587 -0.587,-1.413 v -2 z m -5.5,-6.4999996 q 0,-0.625 0.437,-1.062 0.437,-0.437 1.063,-0.438 h 1.5 q 0.625,0 1.062,0.438 0.437,0.438 0.438,1.062 v 6.9999996 q 0,0.625 -0.438,1.063 -0.438,0.438 -1.062,0.437 h -1.5 q -0.625,0 -1.063,-0.437 -0.438,-0.437 -0.437,-1.063 z"
     id="path1" />
</svg>
