<?xml version="1.0" encoding="UTF-8" standalone="no"?>
<!-- Generator: Adobe Illustrator 16.2.0, SVG Export Plug-In . SVG Version: 6.00 Build 0)  -->

<svg
   version="1.1"
   id="Layer_1"
   x="0px"
   y="0px"
   width="164.22554"
   height="52.200001"
   viewBox="0 0 164.22554 52.200001"
   enable-background="new 0 0 250 100"
   xml:space="preserve"
   sodipodi:docname="OrCAD_Logo.svg"
   inkscape:version="1.3.2 (091e20e, 2023-11-25, custom)"
   xmlns:inkscape="http://www.inkscape.org/namespaces/inkscape"
   xmlns:sodipodi="http://sodipodi.sourceforge.net/DTD/sodipodi-0.dtd"
   xmlns="http://www.w3.org/2000/svg"
   xmlns:svg="http://www.w3.org/2000/svg"><defs
   id="defs19" /><sodipodi:namedview
   id="namedview19"
   pagecolor="#505050"
   bordercolor="#eeeeee"
   borderopacity="1"
   inkscape:showpageshadow="0"
   inkscape:pageopacity="0"
   inkscape:pagecheckerboard="0"
   inkscape:deskcolor="#505050"
   inkscape:zoom="5.28"
   inkscape:cx="82.19697"
   inkscape:cy="26.041667"
   inkscape:window-width="1920"
   inkscape:window-height="1009"
   inkscape:window-x="-8"
   inkscape:window-y="-8"
   inkscape:window-maximized="1"
   inkscape:current-layer="Layer_1" />
<rect
   display="none"
   fill="none"
   width="1368"
   height="1008"
   id="rect1"
   x="-42.887466"
   y="-23.9" />
<g
   id="g19"
   transform="translate(-42.887467,-23.9)">
	<g
   id="g12">
		<path
   fill="#231f20"
   d="m 86.231,72.341 c -0.185,-0.096 -0.495,-0.272 -1.05,-0.272 -0.813,0 -1.33,0.604 -1.33,1.565 0,0.928 0.583,1.553 1.353,1.553 0.591,0 0.938,-0.205 1.057,-0.25 l 0.044,0.993 c -0.207,0.062 -0.637,0.17 -1.293,0.17 -1.413,0 -2.405,-0.973 -2.405,-2.48 0,-1.743 1.272,-2.439 2.322,-2.439 0.768,0 1.16,0.16 1.359,0.233 z"
   id="path1" />
		<path
   fill="#231f20"
   d="M 91.178,74.955 H 89.56 l -0.354,1.062 h -1.171 l 1.717,-4.753 h 1.33 l 1.656,4.753 h -1.242 z m -0.77,-2.777 h -0.016 l -0.613,1.974 h 1.162 z"
   id="path2" />
		<path
   fill="#231f20"
   d="m 94.749,71.264 h 1.833 c 1.161,0 2.306,0.627 2.306,2.417 0,1.643 -1.159,2.336 -2.461,2.336 h -1.678 z m 1.212,3.923 h 0.383 c 0.88,0 1.272,-0.64 1.272,-1.506 0,-0.98 -0.406,-1.585 -1.346,-1.585 h -0.31 z"
   id="path3" />
		<polygon
   fill="#231f20"
   points="103.99,72.096 102.18,72.096 102.18,73.158 103.904,73.158 103.904,73.988 102.18,73.988 102.18,75.187 104.08,75.187 104.08,76.017 101.012,76.017 101.012,71.264 103.99,71.264 "
   id="polygon3" />
		<polygon
   fill="#231f20"
   points="109.227,74.562 109.242,74.562 109.242,71.264 110.305,71.264 110.305,76.017 108.872,76.017 107.383,72.579 107.371,72.579 107.371,76.017 106.305,76.017 106.305,71.264 107.726,71.264 "
   id="polygon4" />
		<path
   fill="#231f20"
   d="m 116.213,72.341 c -0.185,-0.096 -0.494,-0.272 -1.048,-0.272 -0.814,0 -1.332,0.604 -1.332,1.565 0,0.928 0.584,1.553 1.354,1.553 0.592,0 0.939,-0.205 1.057,-0.25 l 0.045,0.993 c -0.208,0.062 -0.637,0.17 -1.295,0.17 -1.412,0 -2.403,-0.973 -2.403,-2.48 0,-1.743 1.273,-2.439 2.321,-2.439 0.77,0 1.162,0.16 1.361,0.233 z"
   id="path4" />
		<polygon
   fill="#231f20"
   points="121.295,72.096 119.483,72.096 119.483,73.158 121.204,73.158 121.204,73.988 119.483,73.988 119.483,75.187 121.385,75.187 121.385,76.017 118.315,76.017 118.315,71.264 121.295,71.264 "
   id="polygon5" />
		<path
   fill="#231f20"
   d="m 127.031,71.264 h 1.651 c 1.099,0 1.764,0.484 1.764,1.511 0,0.812 -0.486,1.508 -1.616,1.508 h -0.586 v 1.734 h -1.213 z m 1.553,2.186 c 0.376,0 0.651,-0.239 0.651,-0.68 0,-0.472 -0.237,-0.677 -0.718,-0.677 h -0.318 v 1.356 h 0.385 z"
   id="path5" />
		<path
   fill="#231f20"
   d="m 136.1,72.341 c -0.188,-0.096 -0.499,-0.272 -1.052,-0.272 -0.814,0 -1.331,0.604 -1.331,1.565 0,0.928 0.584,1.553 1.352,1.553 0.593,0 0.941,-0.205 1.059,-0.25 l 0.043,0.993 c -0.208,0.062 -0.638,0.17 -1.292,0.17 -1.414,0 -2.405,-0.973 -2.405,-2.48 0,-1.743 1.271,-2.439 2.321,-2.439 0.77,0 1.161,0.16 1.36,0.233 z"
   id="path6" />
		<path
   fill="#231f20"
   d="m 138.346,71.264 h 1.921 c 1.088,0 1.428,0.677 1.428,1.186 0,0.756 -0.637,1.057 -0.932,1.088 v 0.017 c 0.584,0.106 1.036,0.401 1.036,1.151 0,1.202 -1.294,1.312 -1.598,1.312 h -1.854 z m 1.168,1.936 h 0.294 c 0.695,0 0.717,-0.5 0.717,-0.587 0,-0.17 -0.105,-0.573 -0.693,-0.573 h -0.317 v 1.16 z m 0,2.013 h 0.34 c 0.16,0 0.774,0 0.774,-0.612 0,-0.416 -0.251,-0.627 -0.651,-0.627 h -0.463 z"
   id="path7" />
		<path
   fill="#231f20"
   d="m 150.279,72.232 c -0.288,-0.139 -0.695,-0.246 -1.022,-0.246 -0.39,0 -0.685,0.162 -0.685,0.517 0,0.864 2.033,0.464 2.033,2.154 0,0.896 -0.777,1.44 -1.804,1.44 -0.628,0 -1.17,-0.135 -1.392,-0.197 l 0.066,-0.927 c 0.363,0.13 0.681,0.291 1.132,0.291 0.383,0 0.754,-0.178 0.754,-0.562 0,-0.92 -2.032,-0.471 -2.032,-2.167 0,-0.144 0.057,-1.356 1.788,-1.356 0.477,0 0.771,0.077 1.214,0.164 z"
   id="path8" />
		<path
   fill="#231f20"
   d="m 154.96,71.184 c 1.485,0 2.194,1.062 2.194,2.457 0,1.397 -0.709,2.457 -2.194,2.457 -1.484,0 -2.189,-1.062 -2.189,-2.457 -10e-4,-1.396 0.704,-2.457 2.189,-2.457 m 0,4.113 c 0.703,0 0.952,-0.744 0.952,-1.656 0,-0.913 -0.249,-1.654 -0.952,-1.654 -0.702,0 -0.948,0.741 -0.948,1.654 0,0.912 0.245,1.656 0.948,1.656"
   id="path9" />
		<polygon
   fill="#231f20"
   points="160.675,75.16 162.383,75.16 162.383,76.017 159.462,76.017 159.462,71.264 160.675,71.264 "
   id="polygon9" />
		<path
   fill="#231f20"
   d="m 164.444,71.264 h 1.215 v 3.206 c 0,0.477 0.192,0.771 0.681,0.771 0.487,0 0.68,-0.292 0.68,-0.771 v -3.206 h 1.215 v 3.028 c 0,1.179 -0.732,1.806 -1.894,1.806 -1.163,0 -1.894,-0.627 -1.894,-1.806 v -3.028 z"
   id="path10" />
		<polygon
   fill="#231f20"
   points="170.267,71.264 173.726,71.264 173.726,72.123 172.601,72.123 172.601,76.017 171.389,76.017 171.389,72.123 170.267,72.123 "
   id="polygon10" />
		<rect
   x="175.812"
   y="71.264"
   fill="#231f20"
   width="1.2130001"
   height="4.7529998"
   id="rect10" />
		<path
   fill="#231f20"
   d="m 181.518,71.184 c 1.485,0 2.196,1.062 2.196,2.457 0,1.397 -0.711,2.457 -2.196,2.457 -1.485,0 -2.188,-1.062 -2.188,-2.457 0,-1.395 0.702,-2.457 2.188,-2.457 m 0,4.113 c 0.701,0 0.954,-0.744 0.954,-1.656 0,-0.913 -0.253,-1.654 -0.954,-1.654 -0.701,0 -0.944,0.741 -0.944,1.654 0,0.912 0.242,1.656 0.944,1.656"
   id="path11" />
		<polygon
   fill="#231f20"
   points="188.92,74.562 188.936,74.562 188.936,71.264 190.001,71.264 190.001,76.017 188.565,76.017 187.079,72.579 187.066,72.579 187.066,76.017 185.999,76.017 185.999,71.264 187.419,71.264 "
   id="polygon11" />
		<path
   fill="#231f20"
   d="m 195.242,72.232 c -0.287,-0.139 -0.695,-0.246 -1.021,-0.246 -0.392,0 -0.687,0.162 -0.687,0.517 0,0.864 2.033,0.464 2.033,2.154 0,0.896 -0.776,1.44 -1.803,1.44 -0.63,0 -1.17,-0.135 -1.394,-0.197 l 0.068,-0.927 c 0.36,0.13 0.679,0.291 1.13,0.291 0.384,0 0.754,-0.178 0.754,-0.562 0,-0.92 -2.034,-0.471 -2.034,-2.167 0,-0.144 0.061,-1.356 1.791,-1.356 0.471,0 0.769,0.077 1.212,0.164 z"
   id="path12" />
	</g>
	<g
   id="g18">
		<g
   id="g17">
			<path
   fill="#e31837"
   d="m 58.978,23.971 c 11.006,0 16.192,9.015 16.089,18.919 C 74.963,54.105 69.512,61.808 58.978,61.808 48.445,61.808 42.995,54.105 42.889,42.89 42.785,32.985 47.971,23.971 58.978,23.971 Z M 46.504,42.89 c 0,7.755 3.876,15.773 12.474,15.773 8.595,0 12.471,-8.019 12.471,-15.773 0,-7.758 -3.875,-15.774 -12.471,-15.774 -8.596,0 -12.474,8.016 -12.474,15.774 z"
   id="path13" />
			<path
   fill="#e31837"
   d="m 82.559,40.429 c 0,-2.938 0,-4.039 -0.209,-5.977 h 3.303 v 5.138 h 0.105 c 1.204,-2.988 3.458,-5.766 6.865,-5.766 0.786,0 1.729,0.157 2.306,0.313 v 3.461 c -0.684,-0.21 -1.572,-0.316 -2.411,-0.316 -5.239,0 -6.654,5.868 -6.654,10.692 V 61.181 H 82.562 V 40.429 Z"
   id="path14" />
			<path
   fill="#e31837"
   d="m 126.006,28.688 c -2.309,-1.207 -5.609,-1.572 -8.176,-1.572 -9.487,0 -14.833,6.709 -14.833,15.774 0,9.224 5.189,15.775 14.833,15.775 2.409,0 6.077,-0.313 8.176,-1.572 l 0.205,3.145 c -1.991,1.205 -6.076,1.57 -8.381,1.57 -11.532,0 -18.449,-7.598 -18.449,-18.918 0,-11.109 7.128,-18.919 18.449,-18.919 2.147,0 6.498,0.366 8.381,1.363 z"
   id="path15" />
			<path
   fill="#e31837"
   d="m 146.998,24.6 h 4.087 l 14.514,36.582 h -3.772 l -3.93,-9.802 H 139.45 l -3.93,9.802 h -3.51 z m 1.781,3.461 -7.967,20.175 h 15.88 z"
   id="path16" />
			<path
   fill="#e31837"
   d="m 171.544,24.6 h 9.065 c 13.104,0 18.291,7.547 18.291,18.239 0,13.258 -8.855,18.343 -20.963,18.343 h -6.393 z m 3.617,33.434 h 2.986 c 10.375,0 17.138,-4.192 17.138,-15.406 0,-11.162 -6.655,-14.883 -14.832,-14.883 h -5.292 z"
   id="path17" />
		</g>
		<path
   d="M 201.269,24.446 H 200.28 V 23.9 h 2.574 v 0.546 h -0.993 v 2.679 h -0.592 z m 2.342,-0.545 h 0.917 l 0.843,2.182 0.825,-2.182 h 0.917 v 3.226 h -0.589 v -2.464 h -0.013 l -0.909,2.464 h -0.481 l -0.905,-2.464 h -0.014 v 2.464 h -0.591 z"
   id="path18" />
	</g>
</g>
</svg>
