<?xml version="1.0" encoding="UTF-8" standalone="no"?>
<!-- Created with Inkscape (http://www.inkscape.org/) -->

<svg
   width="160mm"
   height="160mm"
   viewBox="0 0 160 160"
   version="1.1"
   id="svg1"
   xml:space="preserve"
   inkscape:version="1.3.2 (091e20e, 2023-11-25, custom)"
   sodipodi:docname="Teensy.svg"
   xmlns:inkscape="http://www.inkscape.org/namespaces/inkscape"
   xmlns:sodipodi="http://sodipodi.sourceforge.net/DTD/sodipodi-0.dtd"
   xmlns="http://www.w3.org/2000/svg"
   xmlns:svg="http://www.w3.org/2000/svg"><sodipodi:namedview
     id="namedview1"
     pagecolor="#505050"
     bordercolor="#eeeeee"
     borderopacity="1"
     inkscape:showpageshadow="0"
     inkscape:pageopacity="0"
     inkscape:pagecheckerboard="0"
     inkscape:deskcolor="#505050"
     inkscape:document-units="mm"
     inkscape:zoom="1.4556538"
     inkscape:cx="276.85155"
     inkscape:cy="291.62155"
     inkscape:window-width="1920"
     inkscape:window-height="1009"
     inkscape:window-x="-8"
     inkscape:window-y="-8"
     inkscape:window-maximized="1"
     inkscape:current-layer="layer1" /><defs
     id="defs1" /><g
     inkscape:label="Layer 1"
     inkscape:groupmode="layer"
     id="layer1"><g
       id="g4233"><path
         style="fill:#56a690"
         d="m 129.15327,102.52194 c -0.95792,-0.58408 -1.54785,-1.38858 -1.81519,-2.47542 l -0.183,-0.743991 0.47189,-1.046463 0.47188,-1.046462 0.86925,-0.537225 0.86925,-0.537224 2.00695,1.395237 2.00694,1.395237 0.45503,-0.278303 c 0.62257,-0.380775 2.3046,-2.888614 2.91028,-4.339112 l 0.49718,-1.190625 -4.26091,-10.711174 -4.2609,-10.711174 -1.44865,-0.273301 -1.44864,-0.273302 -0.0821,-0.987921 -0.0821,-0.987921 h 6.24965 l 6.24965,0 -0.0821,0.986291 -0.0821,0.986291 -1.17165,0.19859 c -0.64441,0.109225 -1.29467,0.321602 -1.44501,0.471949 l -0.27336,0.273357 0.42813,1.121449 c 0.23547,0.616797 1.34904,3.56223 2.47459,6.545407 1.12555,2.983177 2.1253,5.513673 2.22166,5.623324 l 0.1752,0.199365 2.55317,-6.626089 2.55317,-6.626089 -0.13823,-0.360225 c -0.15593,-0.406348 -0.94077,-0.667982 -2.01986,-0.67334 l -0.7276,-0.0036 V 70.23113 69.172796 h 4.63021 4.6302 v 1.033506 1.033505 l -1.30309,0.179221 -1.30309,0.179221 -0.12181,0.308628 c -0.067,0.169745 -1.39528,3.404253 -2.95174,7.187795 -1.55646,3.783541 -3.48264,8.48651 -4.28039,10.451042 -0.79775,1.964531 -2.04365,4.793703 -2.76867,6.287049 l -1.31821,2.715174 -1.55005,1.657013 -1.55006,1.65701 -1.17886,0.58875 -1.17886,0.58875 -1.42623,-9.8e-4 -1.42623,-9.9e-4 z M 35.42244,92.580295 c -2.189108,-0.615187 -3.68512,-1.450052 -5.068098,-2.828304 l -1.253214,-1.248931 -0.805362,-1.661486 -0.805362,-1.661485 -0.30671,-1.821191 -0.30671,-1.821191 0.175475,-1.936426 c 0.304263,-3.357661 1.48035,-5.964085 3.634417,-8.054537 l 1.079364,-1.047487 1.623568,-0.793511 1.623568,-0.79351 2.024603,-0.310002 2.024603,-0.310002 1.761053,0.291816 1.761053,0.291816 1.234527,0.597624 c 1.516344,0.734049 3.209869,2.391285 3.871906,3.788939 0.77058,1.626803 1.206305,3.560694 1.209739,5.369224 l 0.0031,1.653646 H 41.00534 33.106678 l 0.128045,1.389062 c 0.07042,0.763985 0.364986,2.029718 0.654581,2.81274 l 0.526536,1.423678 0.910901,1.008258 0.910901,1.008259 1.23995,0.607803 1.23995,0.607803 2.248959,-0.0067 2.248958,-0.0067 1.058333,-0.354098 c 0.582084,-0.194753 1.862006,-0.752681 2.844271,-1.239839 l 1.785938,-0.885741 v 1.805611 1.805611 l -1.785938,0.812564 c -0.982265,0.44691 -2.440781,1.009664 -3.241146,1.250566 l -1.455208,0.438002 -2.778125,0.111778 -2.778125,0.111778 z m 7.066806,-16.650092 -0.137203,-1.709261 -0.685348,-1.169457 -0.685347,-1.169458 -1.119504,-0.447936 -1.119503,-0.447937 -0.938441,0.17387 c -2.403802,0.445364 -3.746206,2.180792 -4.346882,5.619543 l -0.150205,0.859896 h 4.659818 4.659818 z M 61.074834,92.71107 C 60.41999,92.574233 59.147829,92.100065 58.247809,91.657364 l -1.6364,-0.804912 -1.229188,-1.367153 c -1.455309,-1.618654 -2.106206,-2.820918 -2.643022,-4.881896 l -0.395615,-1.518867 0.0065,-2.259515 c 0.0077,-2.682781 0.305967,-4.131435 1.255201,-6.095974 l 0.703133,-1.455209 1.464995,-1.472946 1.464995,-1.472946 1.50802,-0.71131 1.50802,-0.711309 1.970693,-0.306377 1.970692,-0.306377 1.899487,0.313694 1.899486,0.313693 1.236384,0.632726 c 1.470924,0.752752 2.963808,2.251026 3.732491,3.745967 0.64896,1.262102 1.32916,4.247256 1.335758,5.862165 l 0.0046,1.124479 h -7.975192 -7.975192 l 0.170465,1.630917 0.170465,1.630918 0.61954,1.345645 0.61954,1.345645 0.901333,0.893192 c 0.495733,0.491256 1.42361,1.129099 2.06195,1.417429 l 1.160618,0.524238 1.485215,0.129965 1.485216,0.129966 1.784166,-0.418697 1.784165,-0.418698 1.866161,-0.939783 1.866161,-0.939784 -0.07845,1.795461 -0.07845,1.795461 -1.712539,0.842523 c -0.941896,0.463388 -2.489709,1.043271 -3.439583,1.288631 l -1.727045,0.446107 -2.513541,0.08772 -2.513542,0.08772 z m 6.75155,-16.592961 c -0.221921,-1.790242 -0.736665,-3.132774 -1.521425,-3.968112 l -0.565452,-0.601896 -1.053457,-0.283667 -1.053456,-0.283666 -1.14696,0.321129 -1.14696,0.321129 -0.910738,1.008078 -0.910738,1.008078 -0.411807,1.386704 c -0.226494,0.762688 -0.411807,1.662751 -0.411807,2.000141 v 0.613436 h 4.660695 4.660694 z m 41.931786,16.471215 c -0.94589,-0.210464 -1.98768,-0.447862 -2.31511,-0.527552 l -0.59531,-0.14489 v -3.566834 -3.566834 h 1.45521 c 0.80036,0 1.46295,0.02976 1.47242,0.06615 0.009,0.03638 0.15829,1.018646 0.33073,2.182813 l 0.31352,2.116667 1.05833,0.518848 1.05833,0.518848 1.64685,0.106854 c 2.03567,0.132083 2.72071,-0.03167 3.74772,-0.895839 l 0.80515,-0.677485 0.17156,-0.914502 0.17156,-0.914501 -0.32277,-0.779226 c -0.17752,-0.428573 -0.69716,-1.063049 -1.15475,-1.409946 -0.45759,-0.346897 -2.32027,-1.387903 -4.13928,-2.313346 l -3.30729,-1.682623 -1.22542,-1.224696 -1.22542,-1.224697 -0.29505,-1.375789 -0.29506,-1.37579 0.27656,-1.247847 c 0.35709,-1.611245 1.30404,-3.033511 2.68647,-4.034939 l 1.10249,-0.798645 1.47209,-0.448237 1.47209,-0.448238 3.04271,0.03276 3.04271,0.03276 1.85208,0.488555 1.85209,0.488555 0.0743,3.241146 0.0743,3.241146 h -1.45831 -1.45831 l -0.11456,-0.595312 c -0.063,-0.327422 -0.21411,-1.190625 -0.33577,-1.918229 l -0.22121,-1.322917 -0.92604,-0.46261 -0.92604,-0.46261 -1.67897,-4.11e-4 -1.67897,-4.11e-4 -0.74588,0.440603 c -0.86002,0.50803 -1.32014,1.369975 -1.32014,2.473057 v 0.772094 l 0.78718,0.896544 0.78717,0.896544 3.15944,1.660726 3.15943,1.660726 1.35203,1.182716 c 0.74361,0.650494 1.52748,1.522015 1.74193,1.936714 l 0.3899,0.753998 v 1.680982 1.680981 l -0.68203,1.368657 -0.68203,1.368656 -0.83932,0.709958 c -0.46163,0.390477 -1.49417,1.014074 -2.29453,1.385771 l -1.45521,0.675812 -3.57188,0.06899 -3.57187,0.06899 z M 8.1581673,91.265505 V 90.07488 h 1.5464929 1.5464928 l 0.437882,-0.483854 0.437882,-0.483854 V 76.097276 63.08738 H 9.1166058 6.1062943 L 5.8372395,63.418109 C 5.6892593,63.60001 5.4137832,64.850166 5.2250704,66.196234 L 4.8819563,68.64363 H 3.2127701 1.543584 v -4.233334 -4.233333 h 13.890625 13.890625 v 4.233333 4.233334 h -1.692463 l -1.692464,0 -0.323929,-2.315105 C 25.437817,65.055218 25.183205,63.805062 25.050174,63.5504 l -0.241875,-0.46302 -3.033399,0 h -3.033399 v 13.055868 13.055868 l 0.466161,0.42187 0.466161,0.42187 1.452068,0.08216 1.452068,0.08216 0.08136,1.124479 0.08136,1.124479 H 15.449422 8.1581673 Z m 69.0562497,0.132292 v -1.058333 h 1.149618 1.149618 l 0.437882,-0.483855 0.437882,-0.483854 v -8.247396 -8.247396 h -1.5875 -1.5875 V 71.860097 70.84323 l 3.404109,-1.0998 3.404109,-1.0998 h 1.226099 l 1.2261,0 v 1.322916 c 0,0.727605 0.03691,1.322917 0.08203,1.322917 0.04511,0 0.908317,-0.405041 1.918229,-0.900091 1.009912,-0.495051 2.482891,-1.090363 3.273288,-1.322917 l 1.437085,-0.422825 1.473332,0.0015 c 0.810332,8.12e-4 1.949582,0.133045 2.531665,0.293852 l 1.058333,0.292377 0.982096,1.029596 0.982092,1.029596 0.40697,1.370408 0.40697,1.370407 v 7.716179 7.716179 l 0.48385,0.437883 0.48386,0.437882 h 1.10364 1.10365 v 1.058333 1.058333 h -5.820836 -5.820833 v -1.058333 -1.058333 h 0.885034 0.885035 l 0.454096,-0.501771 0.454097,-0.501771 -0.08236,-6.972709 -0.08236,-6.972708 -0.498882,-0.824034 c -0.274386,-0.453219 -0.848693,-1.030672 -1.276239,-1.283229 l -0.777356,-0.459195 h -1.534593 c -0.844026,0 -2.204484,0.149915 -3.02324,0.333144 l -1.488648,0.333145 v 8.107064 8.107064 l 0.3175,0.3175 0.3175,0.3175 h 1.005417 1.005416 v 1.058333 1.058333 h -5.953125 -5.953125 z m 77.104463,-22.21676 c -0.30291,-0.12254 -0.86846,-0.600378 -1.25677,-1.061862 l -0.70603,-0.839062 v -0.918881 -0.918881 l 0.40136,-0.776132 0.40135,-0.776132 0.77613,-0.401354 c 0.98567,-0.50971 1.94207,-0.50971 2.92774,0 l 0.77613,0.401354 0.40136,0.776132 c 0.50635,0.979183 0.51259,2.201079 0.0161,3.161122 l -0.38522,0.744933 -0.91154,0.432553 c -0.99742,0.47331 -1.59889,0.516735 -2.44064,0.17621 z m 2.51665,-0.647448 0.31091,-0.374624 -0.50294,-0.159628 c -0.27662,-0.0878 -0.63752,-0.454997 -0.80201,-0.816001 -0.16448,-0.361005 -0.43556,-0.656373 -0.60239,-0.656373 h -0.30333 l 0.15875,0.79375 0.15875,0.79375 h -0.61046 -0.61047 l 0.12064,-1.454807 0.12065,-1.454807 -0.32971,-0.397276 -0.32971,-0.397277 h 1.32291 1.32292 l 0.34721,0.41836 0.34721,0.418359 -0.31248,0.500355 -0.31248,0.500355 0.29809,0.654231 c 0.16395,0.359826 0.46436,0.718037 0.66759,0.796023 l 0.36951,0.141793 0.27649,-0.72255 0.27648,-0.722551 -0.29589,-0.993257 -0.2959,-0.993257 -0.68484,-0.448722 -0.68483,-0.448722 h -0.88816 -0.88816 l -0.78446,0.75156 -0.78446,0.75156 -0.16193,0.737253 -0.16192,0.737254 0.41214,0.797 c 0.22668,0.43835 0.67744,0.982822 1.00169,1.209937 l 0.58955,0.412936 h 0.96707 0.96706 z"
         id="path4238" /><path
         style="fill:#079471"
         d="m 129.46963,102.63332 c -0.43657,-0.22158 -1.06105,-0.72686 -1.38775,-1.12285 l -0.594,-0.71996 -0.001,-1.236475 -0.001,-1.236471 0.69,-0.820014 c 0.3795,-0.451008 0.89987,-0.932338 1.15639,-1.069623 l 0.4664,-0.249608 2.07448,1.443943 2.07448,1.443942 0.86516,-0.838547 0.86517,-0.838547 1.08378,-2.08317 1.08378,-2.08317 -4.31992,-10.821456 -4.31993,-10.821457 -1.38906,-0.175683 -1.38906,-0.175683 v -1.027847 -1.027848 h 5.95312 5.95313 v 1.058334 1.058333 h -1.00542 -1.00542 l -0.3175,0.3175 c -0.17462,0.174625 -0.3175,0.470324 -0.3175,0.657108 0,0.315745 4.64581,12.634176 4.95884,13.148432 l 0.14147,0.232414 0.19794,-0.364706 c 0.10886,-0.200588 1.30149,-3.209374 2.65027,-6.686191 l 2.45235,-6.321484 -0.2666,-0.425391 -0.2666,-0.42539 -1.22966,-0.08064 -1.22967,-0.08064 v -1.043836 -1.043837 h 4.63021 4.6302 v 1.01005 1.01005 l -1.3581,0.246721 -1.3581,0.246721 -0.47444,1.190625 c -3.35031,8.407653 -9.68591,23.421472 -10.35958,24.549669 -0.47826,0.800938 -1.43918,2.085201 -2.13537,2.853918 l -1.26581,1.39767 -1.36583,0.68062 -1.36583,0.68062 -1.20482,-0.002 -1.20482,-0.002 z M 35.77769,92.609206 C 34.888375,92.40601 33.66262,91.985629 33.053789,91.675026 30.847973,90.549703 28.654988,88.067502 27.849428,85.7843 27.63182,85.167534 27.336307,83.834633 27.192732,82.822296 l -0.261046,-1.840612 0.285076,-2.134131 0.285075,-2.134131 0.749628,-1.620144 0.749629,-1.620144 1.021766,-1.134929 c 1.311254,-1.456479 3.311541,-2.735301 5.117199,-3.271524 l 1.424569,-0.423051 2.455595,0 h 2.455594 l 1.509798,0.564888 1.509798,0.564887 1.164653,1.07354 c 0.640558,0.590446 1.448711,1.558249 1.795894,2.150672 0.774187,1.321051 1.438886,4.036044 1.44413,5.898617 l 0.0039,1.389063 h -7.971587 -7.971586 l 0.176049,1.389062 c 0.09683,0.763985 0.356717,1.945147 0.577532,2.624805 l 0.401483,1.235742 1.076277,1.222715 1.076277,1.222716 1.084475,0.553257 1.084474,0.553258 1.661186,0.133344 1.661187,0.133344 1.584653,-0.336287 1.584654,-0.336286 1.987463,-0.969429 1.987463,-0.969429 v 1.763253 1.763253 l -1.819093,0.813382 c -1.000501,0.44736 -2.571324,1.008304 -3.490717,1.246543 l -1.671625,0.433162 -2.26397,0.108476 -2.26397,0.108477 z m 6.776311,-16.063525 c 0,-0.747101 -0.142961,-1.835526 -0.31769,-2.418721 l -0.317691,-1.060355 -0.816789,-0.866049 -0.816789,-0.866049 -1.007709,-0.189047 -1.00771,-0.189048 -0.996987,0.298705 c -1.336855,0.400532 -2.298813,1.196561 -2.921889,2.41789 -0.60478,1.185467 -1.137768,3.374772 -0.944319,3.878891 l 0.135132,0.352149 h 4.50622 4.506221 z m 19.05,16.183407 C 57.472216,91.934392 54.419866,89.396946 53.08801,85.649667 l -0.54305,-1.527912 -0.130026,-2.248958 -0.130026,-2.248959 0.293985,-1.5875 0.293985,-1.5875 0.811861,-1.656886 0.811861,-1.656886 1.342895,-1.32188 1.342895,-1.321879 1.742221,-0.857693 1.742221,-0.857693 h 3.445147 3.445147 l 1.511804,0.742301 1.511805,0.742301 1.05906,1.203156 1.05906,1.203155 0.57655,1.494127 0.57655,1.494127 0.126095,2.315104 0.126095,2.315105 h -7.837572 -7.837572 v 1.030463 c 0,0.566755 0.24758,1.832037 0.550179,2.811737 l 0.550179,1.781274 1.269403,1.269403 1.269403,1.269403 1.40344,0.416776 1.40344,0.416777 h 1.351598 c 1.75183,0 4.106799,-0.62111 6.069097,-1.600692 0.859987,-0.429307 1.604128,-0.780558 1.653646,-0.780558 0.04952,0 0.09003,0.756281 0.09003,1.680623 v 1.680624 l -1.785937,0.82099 c -2.418616,1.111832 -4.526682,1.627167 -7.209896,1.762523 l -2.248958,0.113449 z M 67.875904,77.461349 68.045783,77.018651 67.75073,75.296145 67.455677,73.573638 66.960887,72.91092 C 66.688752,72.546425 66.159632,72.019393 65.785065,71.739738 L 65.104034,71.231275 63.94933,71.1073 l -1.154704,-0.123975 -1.162711,0.622661 -1.16271,0.622661 -0.7732,1.368586 -0.773201,1.368585 -0.151626,1.469114 -0.151626,1.469115 h 4.543237 4.543236 z m 43.469766,15.362675 c -0.3638,-0.06553 -1.52466,-0.302298 -2.57969,-0.52615 l -1.91823,-0.407005 v -3.553828 -3.553827 h 1.439 1.43899 l 0.17754,1.25677 c 0.0976,0.691224 0.25551,1.67349 0.35081,2.182813 l 0.17328,0.926042 1.293,0.642712 1.29301,0.642713 1.61354,0.0096 1.61354,0.0096 0.93767,-0.458173 0.93766,-0.458174 0.4514,-0.764152 0.45139,-0.764152 v -0.942158 -0.942158 l -0.8176,-0.931194 -0.81759,-0.931194 -3.27291,-1.612561 c -1.8001,-0.886909 -3.80077,-2.015614 -4.44593,-2.508233 l -1.17303,-0.895672 -0.5573,-1.151231 -0.5573,-1.151232 v -1.27483 c 0,-0.701157 0.1401,-1.742453 0.31134,-2.313991 l 0.31134,-1.039159 1.03661,-1.068157 1.03661,-1.068156 1.49632,-0.701506 1.49632,-0.701506 4.10104,0.02358 4.10104,0.02357 1.19063,0.384515 1.19062,0.384515 0.0743,3.229932 0.0743,3.229931 h -1.29799 -1.29798 l -0.16537,-0.826823 c -0.0909,-0.454752 -0.16536,-1.174539 -0.16536,-1.599526 V 72.85291 l -0.62152,-0.621519 -0.62152,-0.621519 -1.49472,-0.334504 -1.49472,-0.334504 -1.0911,0.3269 -1.09109,0.3269 -0.62913,0.629123 -0.62912,0.629123 v 1.237556 1.237556 l 0.88218,0.824992 0.88217,0.824991 2.77703,1.406123 c 1.52736,0.773367 3.44955,1.933963 4.27152,2.579101 l 1.4945,1.172978 0.53484,1.04838 0.53484,1.048379 v 1.236614 c 0,0.680138 -0.14417,1.726678 -0.32038,2.325645 l -0.32039,1.08903 -1.46555,1.474815 -1.46555,1.474816 -1.32292,0.476171 -1.32291,0.476172 -3.175,0.07847 c -1.74625,0.04316 -3.47266,0.02485 -3.83646,-0.04068 z M 8.1581673,91.428656 v -1.027475 l 0.5953125,-0.159537 c 0.3274219,-0.08775 1.0233437,-0.161164 1.5464932,-0.163151 l 0.95118,-0.0036 0.437882,-0.483854 0.437882,-0.483854 V 75.964984 62.822796 H 9.2575078 6.3880983 L 5.9794244,63.285817 5.5707505,63.748838 5.2573041,65.733213 C 5.0849086,66.824619 4.8851478,67.925947 4.8133912,68.180609 L 4.6829247,68.64363 H 3.1132544 1.543584 v -4.233334 -4.233333 h 13.890625 13.890625 v 4.245959 l 0,4.245958 -1.651221,-0.07877 -1.651221,-0.07877 -0.3993,-2.41171 -0.3993,-2.41171 -0.370012,-0.440859 -0.370013,-0.440859 -2.937279,0.07444 -2.937279,0.07444 -0.06864,13.028238 -0.06864,13.028237 0.531658,0.531659 0.531659,0.531658 h 1.036693 c 0.570182,0 1.225026,0.07227 1.455209,0.160599 l 0.418514,0.1606 v 1.030025 1.030026 h -7.14375 -7.1437497 z m 69.0562497,-0.03086 v -1.058333 h 1.27 1.27 l 0.3175,-0.3175 0.3175,-0.3175 v -8.413751 -8.41375 h -1.5875 -1.5875 v -1.013997 -1.013997 l 3.522722,-1.10267 3.522721,-1.102669 h 0.975196 l 0.975195,0 v 1.322916 1.322917 h 0.227582 c 0.12517,0 1.226498,-0.459221 2.447396,-1.020491 1.220897,-0.56127 2.858991,-1.17184 3.640209,-1.356823 l 1.420396,-0.336332 1.55627,0.141117 1.556271,0.141118 1.170889,0.686187 1.170889,0.686187 0.747237,1.521706 0.74724,1.521706 0.0808,8.065141 0.0808,8.06514 0.42323,0.467672 0.42324,0.467673 h 1.14962 1.14962 v 1.058333 1.058333 h -5.820836 -5.820833 v -1.058333 -1.058333 h 1.005416 1.005417 l 0.3175,-0.3175 0.3175,-0.3175 -0.0058,-6.892396 -0.0058,-6.892396 -0.515531,-1.135896 -0.515531,-1.135896 -1.264595,-0.560788 -1.264596,-0.560788 -1.984375,0.288499 c -1.091406,0.158674 -2.311797,0.413219 -2.711979,0.565656 l -0.727604,0.277157 v 7.903042 7.903041 l 0.483854,0.437883 0.483854,0.437882 h 0.971354 0.971354 v 1.058333 1.058333 h -5.953125 -5.953125 z"
         id="path4237" /><path
         style="fill:#138568"
         d="m 129.46963,102.63332 c -0.43657,-0.22158 -1.06105,-0.72686 -1.38775,-1.12285 l -0.594,-0.71996 -0.001,-1.236475 -0.001,-1.236471 0.69,-0.820014 c 0.3795,-0.451008 0.89987,-0.932338 1.15639,-1.069623 l 0.4664,-0.249608 2.07448,1.443943 2.07448,1.443942 0.86516,-0.838547 0.86517,-0.838547 1.08364,-2.082896 1.08364,-2.082896 -2.86458,-7.174088 -2.86457,-7.174089 0.33073,-0.110721 c 0.1819,-0.0609 0.33073,-0.293279 0.33073,-0.516406 v -0.405685 l -0.55007,0.143846 -0.55006,0.143845 0.15319,-0.399209 c 0.0842,-0.219566 0.15319,-0.449004 0.15319,-0.509862 0,-0.06086 0.65484,-0.110652 1.45521,-0.110652 h 1.4552 V 76.58113 76.051963 h 0.26818 c 0.14749,0 0.50831,0.148828 0.80182,0.330729 l 0.53365,0.33073 0.24132,-0.38791 0.24132,-0.38791 0.30081,0.784785 c 0.16545,0.431631 0.95472,2.511191 1.75393,4.621243 0.79921,2.110052 1.55094,3.936859 1.67051,4.059571 l 0.2174,0.223112 0.53265,-1.413737 c 1.64932,-4.377542 3.01191,-7.767946 3.22517,-8.024918 0.13371,-0.161104 0.57599,-0.287306 0.98286,-0.280451 l 0.73976,0.01247 0.0356,0.396875 c 0.0196,0.218281 0.0494,0.731323 0.0661,1.140094 l 0.0305,0.743219 0.26155,-0.161649 0.26156,-0.161648 -0.17692,0.476763 c -1.33997,3.611073 -7.4276,17.988041 -8.0776,19.07664 -0.47715,0.799104 -1.43716,2.081867 -2.13335,2.850584 l -1.26581,1.39767 -1.36583,0.68062 -1.36583,0.68062 -1.20482,-0.002 -1.20482,-0.002 z M 35.77769,92.609206 C 34.888375,92.40601 33.66262,91.985629 33.053789,91.675026 30.847973,90.549703 28.654988,88.067502 27.849428,85.7843 27.63182,85.167534 27.336307,83.834633 27.192732,82.822296 l -0.261046,-1.840612 0.29194,-2.134131 0.291939,-2.134131 0.532198,-1.237842 c 0.292709,-0.680813 0.707341,-1.30505 0.921404,-1.387194 l 0.389207,-0.149352 -0.189942,-0.307332 -0.189942,-0.307333 0.305464,0.188787 c 0.374658,0.231552 0.405588,0.951307 0.04088,0.951307 h -0.264583 v 0.661459 0.661458 h 0.529166 0.529167 V 75.390505 74.99363 h 0.77592 0.775921 l 0.167951,0.529167 0.167951,0.529166 h 0.517885 0.517886 l 0.265437,-0.698153 c 0.393978,-1.036241 0.522758,-0.644093 0.224464,0.683517 -0.143552,0.638902 -0.200127,1.320283 -0.125722,1.51418 l 0.135283,0.35254 h 4.536077 4.536078 l -0.102135,-1.807538 -0.102135,-1.807538 1.262903,-0.05763 1.262903,-0.05763 v 0.939121 0.939121 h 0.529166 0.529167 l 0.529167,-0.529166 c 0.291041,-0.291042 0.648229,-0.529167 0.79375,-0.529167 0.145521,0 0.264583,-0.119063 0.264583,-0.264583 0,-0.145521 0.127793,-0.264584 0.283984,-0.264584 h 0.283983 l -0.09518,0.463021 -0.09518,0.463021 0.36167,0.276616 0.36167,0.276616 0.148788,2.17078 0.148789,2.17078 h -8.009394 -8.009393 l 0.176049,1.389062 c 0.09683,0.763985 0.356717,1.945147 0.577532,2.624805 l 0.401483,1.235742 1.076277,1.222715 1.076277,1.222716 1.084475,0.553257 1.084474,0.553258 1.661186,0.133344 1.661187,0.133344 1.584653,-0.336287 1.584654,-0.336286 1.987463,-0.969429 1.987463,-0.969429 v 1.763253 1.763253 l -1.819093,0.813382 c -1.000501,0.44736 -2.571324,1.008304 -3.490717,1.246543 l -1.671625,0.433162 -2.26397,0.108476 -2.26397,0.108477 z m 25.826311,0.119882 C 57.472216,91.934392 54.419866,89.396946 53.08801,85.649667 L 52.54496,84.121755 52.414934,81.872797 52.284908,79.623838 52.56862,78.10912 c 0.156041,-0.833095 0.534739,-2.098248 0.841551,-2.811451 l 0.557839,-1.296733 1.106016,0.268321 c 0.608309,0.147577 1.219126,0.370933 1.357371,0.496347 0.138244,0.125414 0.584729,0.228026 0.992187,0.228026 h 0.740833 v 0.242535 c 0,0.133394 -0.148828,0.295687 -0.330729,0.360652 l -0.330729,0.118117 0.192044,0.206218 0.192043,0.206218 0.39142,-0.32485 0.39142,-0.32485 -0.308864,-0.49457 -0.308865,-0.494571 0.202808,-0.202808 0.202808,-0.202808 0.239418,0.387386 0.239418,0.387386 -0.159875,1.529594 -0.159874,1.529593 4.602425,-0.07256 4.602424,-0.07256 v -1.235036 -1.235037 l 0.264583,0.215003 c 0.325163,0.264229 4.630209,0.476738 4.630209,0.228559 0,-0.09809 -0.148828,-0.232921 -0.330729,-0.299618 l -0.33073,-0.121267 0.302324,-0.322167 0.302324,-0.322168 0.52262,0.279698 0.522619,0.279698 0.167244,0.836219 c 0.09198,0.459921 0.167244,1.595244 0.167244,2.522939 v 1.686719 h -7.805208 -7.805208 v 1.030463 c 0,0.566755 0.24758,1.832037 0.550179,2.811737 l 0.550179,1.781274 1.269403,1.269403 1.269403,1.269403 1.40344,0.416776 1.40344,0.416777 h 1.351598 c 1.75183,0 4.106799,-0.62111 6.069097,-1.600692 0.859987,-0.429307 1.604128,-0.780558 1.653646,-0.780558 0.04952,0 0.09003,0.756281 0.09003,1.680623 v 1.680624 l -1.785937,0.82099 c -2.418616,1.111832 -4.526682,1.627167 -7.209896,1.762523 l -2.248958,0.113449 z m 49.741669,0.09494 c -0.3638,-0.06553 -1.52466,-0.302298 -2.57969,-0.52615 l -1.91823,-0.407005 v -3.553828 -3.553827 h 1.439 1.43899 l 0.17754,1.25677 c 0.0976,0.691224 0.25551,1.67349 0.35081,2.182813 l 0.17328,0.926042 1.293,0.642712 1.29301,0.642713 1.61354,0.0096 1.61354,0.0096 0.93767,-0.458173 0.93766,-0.458174 0.4514,-0.764152 0.45139,-0.764152 v -0.942158 -0.942158 l -0.8176,-0.931194 -0.81759,-0.931194 -3.27291,-1.612561 c -1.8001,-0.886909 -3.80077,-2.015614 -4.44593,-2.508233 l -1.17303,-0.895672 -0.5573,-1.151231 -0.5573,-1.151232 v -1.503965 -1.503964 h 0.26458 0.26458 v 0.661458 0.661458 h 0.26459 c 0.14552,0 0.26458,-0.178594 0.26458,-0.396875 v -0.396875 h 1.05833 1.05834 v 0.529167 0.529167 h 0.50712 0.50711 l 0.11105,-0.33073 0.11104,-0.330729 0.7709,0.396875 c 0.424,0.218282 1.25083,0.754063 1.8374,1.190625 0.58658,0.436563 2.19986,1.364151 3.58507,2.061307 1.3852,0.697156 3.19468,1.798221 4.02105,2.44681 l 1.50249,1.179252 0.53484,1.04838 0.53484,1.048379 v 1.236614 c 0,0.680138 -0.14417,1.726678 -0.32038,2.325645 l -0.32039,1.08903 -1.46555,1.474815 -1.46555,1.474816 -1.32292,0.476171 -1.32291,0.476172 -3.175,0.07847 c -1.74625,0.04316 -3.47266,0.02485 -3.83646,-0.04068 z M 8.1581673,91.428656 v -1.027475 l 0.5953125,-0.159537 c 0.3274219,-0.08775 1.0233437,-0.161164 1.5464932,-0.163151 l 0.95118,-0.0036 0.437882,-0.483854 0.437882,-0.483854 V 76.18547 c 0,-7.106936 0.0526,-12.869107 0.116877,-12.804825 0.06428,0.06428 0.143287,1.382603 0.175567,2.929603 l 0.05869,2.812727 0.353599,-0.135688 0.353599,-0.135689 0,0.292891 v 0.292891 h 1.5875 1.5875 V 69.040505 68.64363 h 0.529166 0.529167 v -0.41249 -0.41249 l 0.264583,0.163521 c 0.145521,0.08994 0.264584,0.39462 0.264584,0.677074 0,0.282453 0.119062,0.513551 0.264583,0.513551 h 0.264583 v 9.921876 9.921875 l 0.529167,0.529167 0.529167,0.529166 h 1.036693 c 0.570182,0 1.225026,0.07227 1.455209,0.160599 l 0.418514,0.1606 v 1.030025 1.030026 h -7.14375 -7.1437497 z m 69.0562497,-0.03086 v -1.058333 h 1.29052 1.29052 l 0.292785,-0.352784 0.292785,-0.352785 0.07034,-7.51857 0.07034,-7.51857 0.313958,0.661458 0.313958,0.661459 0.01677,-0.463021 0.01677,-0.463021 h 0.926042 0.926042 v 0.396875 0.396875 h 0.529166 0.529167 V 75.390505 74.99363 h 0.529167 0.529166 v 0.396875 c 0,0.526556 0.258939,0.501734 0.690022,-0.06615 l 0.351482,-0.463021 0.0084,7.301181 0.0084,7.30118 0.483854,0.437883 0.483854,0.437882 h 0.971354 0.971354 v 1.058333 1.058333 h -5.953125 -5.953125 z m 15.345834,0 v -1.058333 h 1.005416 1.005417 l 0.3175,-0.3175 0.3175,-0.3175 v -6.826251 -6.82625 h 0.264583 c 0.145521,0 0.264584,-0.119062 0.264584,-0.264583 0,-0.145521 -0.165856,-0.264583 -0.368568,-0.264583 -0.202712,0 -0.438157,-0.181349 -0.523212,-0.402998 l -0.154645,-0.402997 0.509087,0.272455 0.509086,0.272454 0.244282,-0.436508 0.244282,-0.436508 0.867659,0.302467 c 0.477213,0.166357 1.445205,0.302468 2.151094,0.302468 h 1.283434 l 0.0186,0.463021 0.0186,0.463021 0.22739,-0.529167 0.22739,-0.529167 0.0186,7.301181 0.0186,7.30118 0.48385,0.437883 0.48386,0.437882 h 1.10364 1.10365 v 1.058333 1.058333 h -5.820836 -5.820833 z"
         id="path4236" /><path
         style="fill:#1b7963"
         d="m 129.46963,102.63332 c -0.43657,-0.22158 -1.06105,-0.72686 -1.38775,-1.12285 l -0.594,-0.71996 -0.001,-1.236475 -0.001,-1.236471 0.69,-0.820014 c 0.3795,-0.451008 0.89987,-0.932338 1.15639,-1.069623 l 0.4664,-0.249608 2.07448,1.443943 2.07448,1.443942 0.86516,-0.838547 0.86517,-0.838547 1.08485,-2.08523 1.08486,-2.085229 -0.94756,-2.367462 -0.94756,-2.367461 v -0.924215 -0.924216 h 3.40576 3.40577 l 0.17344,-1.084644 0.17345,-1.084643 0.34773,0.288598 c 0.19126,0.158729 0.42609,0.210256 0.52184,0.114504 0.0958,-0.09575 0.17409,-0.03145 0.17409,0.142892 0,0.174341 -0.17859,0.385517 -0.39687,0.469279 l -0.39688,0.152295 -0.001,0.699297 -0.001,0.699297 -1.85081,4.484869 c -2.09565,5.078181 -3.02654,6.76485 -4.83663,8.763509 l -1.26581,1.39767 -1.36583,0.68062 -1.36583,0.68062 -1.20482,-0.002 -1.20482,-0.002 z M 35.77769,92.609206 c -2.067147,-0.472315 -3.564452,-1.2415 -5.009365,-2.573375 -1.475567,-1.36013 -2.609161,-3.154798 -3.140561,-4.97203 l -0.420856,-1.439205 0.331359,-0.21039 c 0.182247,-0.115714 0.556358,-0.212213 0.831357,-0.214441 0.274999,-0.0022 0.661952,-0.212411 0.859896,-0.467072 l 0.359897,-0.463021 0.359898,0.463021 c 0.441423,0.567906 0.856211,0.593821 1.058699,0.06615 l 0.152296,-0.396875 h 0.674803 0.674803 l -0.169294,0.674521 -0.169294,0.674521 0.646476,-0.162255 0.646476,-0.162255 0.329886,1.101064 0.329887,1.101063 1.094227,1.187096 c 0.601825,0.652903 1.572327,1.431005 2.156671,1.729115 l 1.062444,0.542019 1.661186,0.133344 1.661187,0.133344 1.584653,-0.336287 1.584654,-0.336286 1.987463,-0.969429 1.987463,-0.969429 v 1.763253 1.763253 l -1.819093,0.813382 c -1.000501,0.44736 -2.571324,1.008304 -3.490717,1.246543 l -1.671625,0.433162 -2.26397,0.108476 -2.26397,0.108477 z m 25.826311,0.119882 c -4.102903,-0.789141 -7.197259,-3.344555 -8.484388,-7.006665 -0.573136,-1.630677 -0.608094,-1.964292 -0.262976,-2.509696 l 0.240366,-0.379862 0.350895,0.288477 c 0.379449,0.311952 1.236112,0.410932 3.176266,0.366991 l 1.237872,-0.02804 0.415774,-0.415774 0.415774,-0.415774 v 0.56445 c 0,0.310448 0.304811,1.208767 0.677357,1.996266 l 0.677357,1.431815 1.097024,0.939011 1.097023,0.939011 1.31635,0.390914 c 2.558809,0.759885 5.648382,0.332086 8.737045,-1.209778 0.859987,-0.429307 1.604128,-0.780558 1.653646,-0.780558 0.04952,0 0.09003,0.756281 0.09003,1.680623 v 1.680624 l -1.785937,0.82099 c -2.418616,1.111832 -4.526682,1.627167 -7.209896,1.762523 l -2.248958,0.113449 z m 49.741669,0.09494 c -0.3638,-0.06553 -1.52466,-0.302298 -2.57969,-0.52615 l -1.91823,-0.407005 v -3.553828 -3.553827 h 1.439 1.43899 l 0.17754,1.25677 c 0.0976,0.691224 0.25551,1.67349 0.35081,2.182813 l 0.17328,0.926042 1.293,0.642712 1.29301,0.642713 1.61354,0.0096 1.61354,0.0096 0.93767,-0.458173 0.93766,-0.458174 0.4514,-0.764152 0.45139,-0.764152 v -0.868846 -0.868846 l -0.57413,-0.837891 -0.57413,-0.837891 -1.47639,-0.849399 c -0.81201,-0.467169 -1.29779,-0.798184 -1.07951,-0.735588 0.21828,0.0626 0.59823,0.0104 0.84432,-0.115997 l 0.44745,-0.229807 3.17564,-0.07655 3.17563,-0.07655 0.15227,0.606695 c 0.0837,0.333682 0.26533,0.606695 0.40351,0.606695 h 0.25124 l -0.1523,-0.396875 -0.15229,-0.396875 h 0.25042 c 0.42834,0 0.86452,1.292342 0.86452,2.56144 0,0.667494 -0.14417,1.703688 -0.32038,2.302655 l -0.32039,1.08903 -1.46555,1.474815 -1.46555,1.474816 -1.32292,0.476171 -1.32291,0.476172 -3.175,0.07847 c -1.74625,0.04316 -3.47266,0.02485 -3.83646,-0.04068 z M 8.1581673,91.428656 v -1.027475 l 0.5953125,-0.159537 c 0.3274219,-0.08775 1.0233437,-0.161164 1.5464932,-0.163151 l 0.95118,-0.0036 0.437882,-0.483854 0.437882,-0.483854 0.06122,-10.827084 0.06122,-10.827083 0.07572,6.38962 0.07572,6.389621 0.383758,0.147261 0.383758,0.147262 0.15638,-0.253028 0.15638,-0.253028 h 1.946711 1.946712 l 0.123979,-0.330729 0.123978,-0.330729 0.418822,0.529167 0.418822,0.529166 0.0084,4.29948 0.0084,4.299479 0.529167,0.529167 0.529167,0.529166 h 1.036693 c 0.570182,0 1.225026,0.07227 1.455209,0.160599 l 0.418514,0.1606 v 1.030025 1.030026 h -7.14375 -7.1437497 z m 69.0562497,-0.03086 v -1.058333 h 1.27 1.27 l 0.3175,-0.3175 0.3175,-0.3175 V 86.58238 83.460297 h 0.264584 c 0.145521,0 0.264583,-0.178594 0.264583,-0.396875 v -0.396875 h 2.116667 2.116666 l 0.529167,0.529166 0.529167,0.529167 v 2.86941 2.869409 l 0.483854,0.437883 0.483854,0.437882 h 0.971354 0.971354 v 1.058333 1.058333 h -5.953125 -5.953125 z m 15.345834,0 v -1.058333 h 1.005416 1.005417 l 0.3175,-0.3175 0.3175,-0.3175 0.05322,-6.230938 0.05322,-6.230938 0.147278,3.175 0.147278,3.175 0.3119,-0.661458 0.3119,-0.661458 0.01677,0.498984 0.01677,0.498984 1.179114,-0.161616 1.179113,-0.161615 0.159418,0.257944 c 0.08768,0.141869 0.390517,0.257944 0.67297,0.257944 h 0.513552 v -0.368568 c 0,-0.307508 0.525186,-0.689766 0.947686,-0.689766 0.0609,0 0.11065,1.588891 0.11065,3.530868 v 3.530868 l 0.48385,0.437883 0.48386,0.437882 h 1.10364 1.10365 v 1.058333 1.058333 h -5.820836 -5.820833 z"
         id="path4235" /><path
         style="fill:#227361"
         d="m 129.46963,102.63332 c -0.43657,-0.22158 -1.06105,-0.72686 -1.38775,-1.12285 l -0.594,-0.71996 -0.001,-1.236475 -0.001,-1.236471 0.69,-0.820014 c 0.3795,-0.451008 0.89987,-0.932338 1.15639,-1.069623 l 0.4664,-0.249608 2.07448,1.443943 2.07448,1.443942 0.86516,-0.838547 0.86517,-0.838547 1.09223,-2.099409 1.09223,-2.099408 -0.27865,-0.611573 -0.27865,-0.611573 0.35849,-0.297523 0.35849,-0.297522 0.18472,0.298869 0.18471,0.29887 0.61157,-0.153495 c 0.33636,-0.08442 0.79449,-0.0833 1.01806,0.0025 l 0.4065,0.155989 -0.15396,0.769817 -0.15397,0.769818 h 0.2999 0.2999 l -0.24475,0.463021 c -0.13462,0.254661 -0.39596,0.868718 -0.58077,1.36457 -0.54097,1.451501 -2.69955,4.570327 -3.9265,5.673205 -0.6232,0.56018 -1.62565,1.24218 -2.22767,1.51555 l -1.09458,0.49703 -1.19063,0.004 -1.19062,0.004 z M 35.741286,92.601781 C 34.831948,92.3945 33.501593,91.905773 32.78494,91.515722 l -1.303004,-0.709184 0.147998,-0.385677 0.147998,-0.385677 -0.498945,0.08599 -0.498945,0.08599 0.07774,-0.463021 0.07774,-0.463021 h -0.487849 c -0.495629,0 -1.122848,-0.468306 -1.122848,-0.838362 0,-0.11185 0.166551,-0.139452 0.370112,-0.06134 l 0.370112,0.142026 0.181833,-0.294211 0.181832,-0.294211 -0.340746,-0.451431 -0.340747,-0.451431 0.370885,0.330729 0.370886,0.330729 h 0.873125 0.873125 v 0.425183 0.425182 l 0.41238,-0.158245 c 0.226809,-0.08704 0.941778,-0.0396 1.588821,0.105401 l 1.176442,0.263646 0.506029,-0.316021 0.50603,-0.316021 1.136307,0.513042 1.136306,0.513042 2.126655,-0.02801 c 1.16966,-0.01541 3.047716,-0.120252 4.173458,-0.232994 l 2.046803,-0.204984 0.300698,-0.362319 c 0.431176,-0.519536 0.765071,-0.446719 0.765071,0.166847 0,0.585599 0.40931,0.716917 0.618521,0.198438 0.0734,-0.181901 0.142852,0.09981 0.154341,0.626034 l 0.02089,0.956763 -1.819093,0.813382 c -1.000501,0.44736 -2.571324,1.008304 -3.490717,1.246543 l -1.671625,0.433162 -2.26397,0.108476 -2.26397,0.108477 z m 25.862715,0.127307 c -1.898344,-0.365122 -3.4015,-0.993684 -4.758522,-1.989829 -1.272049,-0.93377 -2.886871,-2.781045 -2.43109,-2.781045 0.135108,0 0.380048,0.161938 0.544312,0.359863 l 0.29866,0.359864 0.659778,-0.126125 0.659778,-0.126124 v 0.692302 0.692303 h 0.661459 0.661458 v -0.264583 c 0,-0.145521 0.178594,-0.264584 0.396875,-0.264584 0.218281,0 0.396875,-0.119062 0.396875,-0.264583 0,-0.145521 -0.178594,-0.264583 -0.396875,-0.264583 -0.218281,0 -0.396875,0.119062 -0.396875,0.264583 0,0.145521 -0.178594,0.264583 -0.396875,0.264583 h -0.396875 v -0.391834 -0.391834 l 0.595313,-0.129407 c 0.327421,-0.07117 0.892968,-0.165566 1.25677,-0.20976 l 0.661459,-0.08035 -0.07543,-0.352297 c -0.04149,-0.193764 0.06361,-0.519828 0.233542,-0.724586 l 0.308971,-0.372287 0.364704,0.302678 0.364705,0.302678 -0.465955,0.353628 -0.465955,0.353628 0.367707,0.0084 c 0.202238,0.0046 0.535825,0.216774 0.741304,0.471435 l 0.373597,0.463021 -0.163293,-0.593647 -0.163293,-0.593648 0.414177,0.158934 c 0.227797,0.08741 0.414176,0.331817 0.414176,0.543117 v 0.384182 l 0.219415,-0.135606 c 0.120678,-0.07458 0.794445,0.03745 1.497259,0.248969 1.588095,0.477946 3.576587,0.491511 5.331211,0.03637 l 1.342371,-0.348207 0.903465,0.105474 0.903465,0.105475 0.498664,-0.551018 c 0.627667,-0.693565 0.945817,-0.700915 0.945817,-0.02185 v 0.529167 h 0.264583 0.264583 v 0.754581 0.754582 l -1.785937,0.82099 c -2.418616,1.111832 -4.526682,1.627167 -7.209896,1.762523 l -2.248958,0.113449 z m 49.741669,0.09494 c -0.3638,-0.06553 -1.52466,-0.302298 -2.57969,-0.52615 l -1.91823,-0.407005 0.0477,-3.619974 0.0477,-3.619973 0.16925,1.984375 c 0.0931,1.091406 0.1907,1.716484 0.21692,1.389062 0.0262,-0.327421 0.16673,-0.595312 0.31225,-0.595312 h 0.26458 v 0.529167 0.529166 h 0.26459 0.26458 v -0.553937 -0.553936 l 0.52917,-0.138381 0.52916,-0.13838 0.008,-0.961329 0.008,-0.961328 0.22427,0.396875 c 0.12335,0.218281 0.3033,1.052744 0.39989,1.854361 0.0966,0.801618 0.25993,1.586443 0.36299,1.744056 0.10306,0.157613 0.77302,0.507858 1.4888,0.778323 l 1.30142,0.491755 1.4767,0.01315 1.47671,0.01315 0.19439,0.264584 0.19438,0.264583 0.004,-0.432162 0.004,-0.432162 0.59532,-0.198228 c 0.32742,-0.109025 0.83343,-0.212209 1.12448,-0.229296 0.29104,-0.01709 0.52916,-0.150131 0.52916,-0.295652 0,-0.145521 -0.17859,-0.243619 -0.39687,-0.217996 l -0.39688,0.04659 0.46302,-0.340339 c 0.25466,-0.187186 0.46302,-0.535572 0.46302,-0.774191 V 87.69363 h 1.85209 1.85208 v 0.396875 c 0,0.501104 0.26152,0.501875 0.97394,0.0029 l 0.56252,-0.394002 -0.15382,0.59244 -0.15382,0.592439 -1.47431,1.474815 -1.4743,1.474816 -1.32292,0.476171 -1.32291,0.476172 -3.175,0.07847 c -1.74625,0.04316 -3.47266,0.02485 -3.83646,-0.04068 z M 8.1581673,91.428656 v -1.027475 l 0.5953125,-0.159537 c 0.3274219,-0.08775 1.0233437,-0.161164 1.5464932,-0.163151 l 0.95118,-0.0036 0.437882,-0.483854 0.437882,-0.483854 0.05119,-7.519792 0.05119,-7.519792 0.172713,6.482292 c 0.09499,3.565261 0.191021,6.530511 0.213396,6.589445 0.02238,0.05893 0.264782,-0.09565 0.53868,-0.343529 l 0.497998,-0.450681 1.817107,0.07894 1.817106,0.07895 0.08291,0.859896 0.08291,0.859896 h 0.24782 0.24782 V 86.767589 85.31238 h 0.264583 0.264583 v 1.697743 l 0,1.697743 -0.330729,0.133453 -0.330729,0.133452 0.330729,0.02089 c 0.181901,0.01149 0.568854,0.259013 0.859896,0.550055 l 0.529167,0.529166 h 1.036693 c 0.570182,0 1.225026,0.07227 1.455209,0.160599 l 0.418514,0.1606 v 1.030025 1.030026 h -7.14375 -7.1437497 z m 69.0562497,-0.03086 v -1.058333 h 1.137877 c 0.625832,0 1.450037,-0.147317 1.831568,-0.32737 l 0.693691,-0.32737 0.152807,-0.764036 c 0.08404,-0.420221 0.152807,-1.04681 0.152807,-1.392422 V 86.89988 h 1.984375 1.984375 v 1.455209 1.455208 h 0.264584 0.264583 v -1.719792 -1.719791 h 0.264583 0.264584 v 1.546492 1.546493 l 0.483854,0.437883 0.483854,0.437882 h 0.971354 0.971354 v 1.058333 1.058333 h -5.953125 -5.953125 z m 15.345834,0 v -1.058333 h 1.005416 1.005417 l 0.3175,-0.3175 0.3175,-0.3175 0.05163,-5.834063 0.05163,-5.834063 0.168386,4.7625 c 0.09261,2.619376 0.18844,4.792266 0.212951,4.828646 0.02451,0.03638 0.94868,0.06615 2.05371,0.06615 h 2.009145 l 0.13838,0.529167 c 0.07611,0.291042 0.243559,0.529167 0.372109,0.529167 h 0.23372 V 87.825922 86.89988 h 0.26458 0.26459 v 1.28191 1.281909 l 0.48385,0.437883 0.48386,0.437882 h 1.10364 1.10365 v 1.058333 1.058333 h -5.820836 -5.820833 z"
         id="path4234" /><path
         style="fill:#226f5d"
         d="m 129.44616,102.53915 c -0.44947,-0.27408 -1.07455,-0.82548 -1.38906,-1.22532 l -0.57185,-0.72698 v -1.154942 -1.154944 l 1.06863,-1.068628 1.06863,-1.068628 2.14631,1.478484 2.14631,1.478484 0.32372,-0.124221 c 0.17804,-0.06832 0.90667,-0.996898 1.61918,-2.063502 l 1.29546,-1.939281 1.39062,0.08022 1.39062,0.08022 -0.97034,1.84656 -0.97034,1.846561 -1.48409,1.529703 -1.48408,1.5297 -1.20802,0.57842 -1.20801,0.57841 -1.17324,-9.8e-4 -1.17323,-9.9e-4 z M 36.865459,92.800601 c -1.291482,-0.171508 -3.918097,-1.111325 -4.626255,-1.655299 l -0.657506,-0.505064 0.176882,-0.176881 0.176881,-0.176882 0.348332,0.217939 c 0.405587,0.25376 0.508348,0.270387 2.001979,0.323916 l 1.124479,0.0403 v 0.426321 0.426321 l 0.905409,-0.169856 0.905409,-0.169856 0.168539,0.272702 c 0.0927,0.149986 0.399637,0.272702 0.682091,0.272702 h 0.513552 v -0.554583 -0.554583 l 2.976562,0.07193 c 1.63711,0.03956 3.54211,-0.02472 4.233334,-0.142839 l 1.25677,-0.214764 v 0.281536 0.281537 l -1.521354,0.575781 c -2.698638,1.021343 -6.120936,1.467491 -8.665104,1.129626 z M 61.17769,92.609065 c -1.609888,-0.367697 -3.63697,-1.25123 -3.919497,-1.708369 l -0.148377,-0.24008 0.956279,0.215676 c 0.525953,0.118621 1.120426,0.152686 1.321051,0.0757 l 0.364771,-0.139977 v 0.292891 0.292891 h 0.507118 c 0.278915,0 0.567507,0.148828 0.641316,0.330729 l 0.134197,0.330729 0.284726,-0.396875 0.284727,-0.396875 0.253566,0.394664 0.253565,0.394663 0.328518,-0.328517 c 0.180684,-0.180685 0.602361,-0.328518 0.937059,-0.328518 h 0.608542 V 91.133214 90.86863 h 1.322916 1.322917 v -0.233724 c 0,-0.128549 -0.267891,-0.322257 -0.595312,-0.430464 l -0.595313,-0.196739 0.595313,-0.117105 c 0.327421,-0.06441 0.595312,-0.227887 0.595312,-0.363286 0,-0.1354 0.09309,-0.246182 0.206876,-0.246182 0.113781,0 0.23318,0.317837 0.265331,0.706304 0.03215,0.388466 0.118088,0.765936 0.190972,0.83882 0.07288,0.07288 0.954184,0.142001 1.958443,0.153593 l 1.825927,0.02107 -0.122723,-0.198437 -0.122722,-0.198438 1.140094,0.02168 1.140094,0.02168 -1.37742,0.62952 c -1.994029,0.911327 -4.329851,1.457607 -6.788407,1.587609 l -2.152923,0.113841 z m 50.03569,0.198846 c -0.43657,-0.07035 -0.90686,-0.237816 -1.04511,-0.37214 l -0.25135,-0.244224 h 0.3175 c 0.17462,0 0.3175,-0.115326 0.3175,-0.256279 v -0.25628 l -0.46302,0.170835 c -0.25466,0.09396 -0.52346,0.258903 -0.59732,0.366543 l -0.13429,0.195709 -1.25477,-0.287132 -1.25477,-0.287132 0.0539,-2.667403 0.0538,-2.667403 0.0891,2.182813 0.0891,2.182812 h 1.04764 1.04763 v 0.264584 0.264583 h 0.66146 0.66146 V 91.133214 90.86863 h 0.79375 0.79375 v -0.401916 -0.401915 l 0.7276,0.159207 c 0.40018,0.08756 1.07279,0.268426 1.49469,0.401916 0.4219,0.133489 1.16604,0.242708 1.65365,0.242708 h 0.88656 v -0.236594 c 0,-0.130126 0.26789,-0.22999 0.59531,-0.221919 0.32742,0.0081 0.80367,-0.07679 1.05833,-0.188588 l 0.46302,-0.203264 v 0.557475 0.557474 h 0.79375 0.79375 v 0.429272 0.429271 l -0.40326,-0.334683 -0.40327,-0.334684 -0.18438,0.184382 -0.18439,0.184381 0.34857,0.215425 0.34856,0.215425 -0.88539,0.333502 -0.88539,0.333501 -3.175,0.07341 c -1.74625,0.04038 -3.53219,0.01585 -3.96875,-0.0545 z M 8.1581673,91.397797 v -1.058333 h 0.396875 c 0.2182813,0 0.396875,0.119062 0.396875,0.264583 v 0.264583 h 2.0091457 2.009145 l 0.148413,-0.567532 0.148413,-0.567533 3.994004,0.161428 c 2.196702,0.08879 4.261895,0.239 4.589317,0.333808 l 0.595312,0.17238 v 1.027475 1.027474 h -7.14375 -7.1437497 z m 69.0562497,0 v -1.058333 h 1.307302 1.307302 l 0.163521,-0.264584 c 0.08994,-0.145521 0.335089,-0.264583 0.544782,-0.264583 h 0.38126 v 0.529167 0.529166 h 3.439583 3.439584 v -0.264583 -0.264583 l 0.727604,0.0186 0.727604,0.0186 -0.529167,0.227391 -0.529166,0.227391 0.463021,0.0186 0.46302,0.0186 v 0.79375 0.79375 h -5.953125 -5.953125 z m 15.345834,0 v -1.058333 l 0.859896,-3.82e-4 c 0.472942,-2.1e-4 2.152408,0.139629 3.732146,0.310754 l 2.872247,0.311136 0.50119,-0.312996 0.50119,-0.312996 v 0.266825 0.266825 h 0.52916 0.52917 v -0.264583 -0.264583 h 1.05833 1.05834 v 1.058333 1.058333 h -5.820836 -5.820833 z"
         id="path4233" /></g></g></svg>
