<svg width="12mm" height="12mm" version="1.1" viewBox="0 0 12 12" xml:space="preserve" xmlns="http://www.w3.org/2000/svg" xmlns:xlink="http://www.w3.org/1999/xlink"><g transform="matrix(.26458 0 0 .26458 220 0)"><g transform="translate(-2.4044 -5.6676)"><path transform="matrix(1.3333 0 0 -1.3333 -611.1 34.741)" d="m-145.67 0.975c-3.01 0.944-6.202-0.694-7.155-3.67-0.955-2.981 0.7-6.141 3.711-7.083 3.009-0.947 6.202 0.693 7.155 3.672 0.954 2.977-0.702 6.137-3.711 7.081m5.224 10.946c-5.843-2.128-6.518-1.82-8.669 3.962-1.091 2.932-4.356 4.424-7.32 3.347-2.962-1.08-4.469-4.311-3.379-7.243 1.091-2.932 4.356-4.424 7.318-3.344 5.843 2.128 6.52 1.818 8.67-3.965 1.09-2.932 4.355-4.424 7.317-3.344 2.964 1.077 4.47 4.31 3.38 7.242-1.09 2.933-4.355 4.425-7.317 3.345"/></g></g></svg>
